# xmcd CD database file
#
# Track frame offsets:
#	150
#	26444
#	42727
#	65306
#	77065
#	95539
#	112789
#	130769
#	151518
#	169550
#
# Disc length: 2590 seconds
#
# Revision: 0
# Processed by: cddbd v1.5.1PL0 Copyright (c) Steve Scherf et al.
# Submitted via: CDex 1.51
#
DISCID=6c0a1c0a
DTITLE=La Salsa Mayor - De Frente Y Luchando
DYEAR=2004
DGENRE=Salsa
TTITLE0=Fuimos Amigos
TTITLE1=Avelina
TTITLE2=Compay Póngase Duro
TTITLE3=Bajo el Palmar
TTITLE4=Ven, Cosa Buena
TTITLE5=Lo Que Pasó a Luisita
TTITLE6=Camina Y Prende el Fogón
TTITLE7=Sonerito
TTITLE8=Corazón No Llores
TTITLE9=Envidia e Hipocresía
EXTD=YEAR: 2004
EXTT0=
EXTT1=
EXTT2=
EXTT3=
EXTT4=
EXTT5=
EXTT6=
EXTT7=
EXTT8=
EXTT9=
PLAYORDER=
